<?xml version="1.0" standalone="no"?>
<!DOCTYPE svg PUBLIC "-//W3C//DTD SVG 20010904//EN"
 "http://www.w3.org/TR/2001/REC-SVG-20010904/DTD/svg10.dtd">
<svg version="1.0" xmlns="http://www.w3.org/2000/svg"
 width="1500.000000pt" height="1500.000000pt" viewBox="0 0 1500.000000 1500.000000"
 preserveAspectRatio="xMidYMid meet">
<metadata>
Created by potrace 1.11, written by Peter Selinger 2001-2013
</metadata>
<g transform="translate(0.000000,1500.000000) scale(0.100000,-0.100000)"
fill="#000000" stroke="none">
<path d="M26 13943 c15 -27 58 -100 95 -163 37 -63 129 -223 205 -355 75 -132
174 -303 219 -380 45 -77 94 -160 107 -185 25 -44 160 -281 178 -310 53 -89
109 -185 133 -230 17 -30 38 -66 47 -80 9 -14 31 -52 50 -85 40 -73 41 -74
175 -305 59 -102 119 -205 133 -230 14 -25 89 -155 167 -290 78 -135 150 -258
159 -275 23 -41 64 -112 105 -182 19 -32 45 -78 59 -103 30 -55 62 -109 80
-135 7 -11 18 -32 25 -47 6 -16 15 -28 19 -28 4 0 8 -4 8 -10 0 -5 14 -33 31
-62 18 -29 40 -68 51 -86 10 -18 53 -93 95 -165 42 -73 119 -206 171 -297 52
-91 126 -219 165 -285 38 -66 83 -145 100 -175 17 -30 40 -71 52 -90 12 -19
39 -66 60 -105 21 -38 43 -76 49 -84 11 -14 30 -46 43 -71 7 -15 42 -76 293
-510 84 -146 161 -278 170 -295 9 -16 43 -75 75 -130 32 -55 66 -113 75 -130
10 -16 118 -203 240 -415 123 -212 231 -401 242 -420 20 -37 25 -44 76 -127
17 -30 32 -55 32 -57 0 -2 29 -53 64 -114 36 -61 76 -131 89 -154 14 -24 48
-83 77 -133 29 -49 64 -110 78 -135 14 -25 45 -78 69 -118 24 -41 43 -75 43
-77 0 -2 25 -44 55 -94 30 -50 55 -93 55 -97 0 -3 8 -18 19 -32 10 -15 31 -49
46 -77 53 -97 218 -380 236 -407 11 -15 19 -30 19 -32 0 -5 288 -505 513 -891
38 -66 85 -149 105 -185 19 -36 38 -69 42 -75 18 -23 330 -568 330 -576 0 -5
5 -9 10 -9 6 0 10 -4 10 -9 0 -8 93 -173 175 -311 18 -30 44 -75 57 -100 14
-25 81 -142 150 -260 69 -118 186 -321 260 -450 75 -129 145 -251 157 -270 11
-19 24 -42 28 -50 3 -8 14 -26 23 -40 9 -14 30 -50 47 -80 16 -30 95 -167 175
-305 220 -380 483 -836 506 -876 48 -85 57 -94 69 -62 4 10 16 34 29 53 12 19
64 109 117 200 303 526 431 748 446 775 9 17 24 41 32 55 9 14 86 147 172 295
85 149 164 286 176 305 11 19 24 42 28 50 4 8 41 73 84 146 42 72 88 151 101
175 14 24 51 89 83 144 32 55 106 183 165 285 58 102 151 262 205 355 131 227
240 416 263 457 11 18 95 164 187 323 93 160 178 308 190 330 12 22 58 101
102 175 43 75 83 142 87 150 4 8 12 24 19 35 35 59 404 697 422 730 5 11 29
52 52 90 22 39 94 162 158 275 65 113 130 225 145 250 16 25 38 63 50 85 12
22 82 144 155 270 73 127 208 361 300 520 92 160 181 315 199 345 18 30 69
118 113 195 82 142 284 491 321 555 12 19 27 46 35 60 23 42 123 216 377 655
134 231 254 440 268 464 14 25 38 68 55 95 16 28 38 65 47 81 9 17 59 102 110
190 51 88 104 180 118 205 14 25 34 59 44 75 10 17 21 37 25 45 3 8 16 31 28
50 12 19 33 55 47 80 14 25 62 108 107 184 44 76 81 140 81 142 0 2 25 44 55
95 30 50 55 93 55 94 0 1 30 54 66 116 37 63 134 231 216 374 81 143 153 267
158 275 4 8 192 332 416 720 498 862 572 990 639 1105 29 50 70 122 93 160
l40 70 -2881 3 c-1584 1 -2885 -2 -2889 -6 -7 -7 -955 -1645 -1026 -1772 -13
-25 -28 -49 -32 -55 -4 -5 -19 -30 -32 -55 -24 -41 -86 -150 -338 -585 -50
-88 -138 -240 -194 -337 -55 -98 -103 -177 -106 -177 -3 0 -51 79 -107 177
-56 97 -268 466 -472 819 -204 353 -379 657 -390 675 -10 18 -43 76 -73 128
-30 52 -140 241 -243 420 -103 179 -208 361 -234 404 -25 44 -82 143 -126 220
l-81 141 -2887 3 -2888 2 27 -47z"/>
</g>
</svg>
